<mxfile host="app.diagrams.net" modified="2021-12-25T13:50:12.136Z" agent="5.0 (X11)" etag="5JAlsR5DRZ1T65NOL_6O" version="16.0.0" type="github">
  <diagram id="xOUidrAjEDj8wvsIaSMF" name="Page-1">
    <mxGraphModel dx="1564" dy="836" grid="1" gridSize="10" guides="1" tooltips="1" connect="1" arrows="1" fold="1" page="1" pageScale="1" pageWidth="827" pageHeight="1169" math="0" shadow="0">
      <root>
        <mxCell id="0" />
        <mxCell id="1" parent="0" />
        <mxCell id="I6UonMHYqPcTa4JFxydw-10" style="edgeStyle=orthogonalEdgeStyle;rounded=0;orthogonalLoop=1;jettySize=auto;html=1;entryX=0.5;entryY=0;entryDx=0;entryDy=0;" edge="1" parent="1" source="I6UonMHYqPcTa4JFxydw-1" target="I6UonMHYqPcTa4JFxydw-2">
          <mxGeometry relative="1" as="geometry" />
        </mxCell>
        <mxCell id="I6UonMHYqPcTa4JFxydw-1" value="Начало" style="ellipse;whiteSpace=wrap;html=1;" vertex="1" parent="1">
          <mxGeometry x="340" y="170" width="120" height="80" as="geometry" />
        </mxCell>
        <mxCell id="I6UonMHYqPcTa4JFxydw-11" style="edgeStyle=orthogonalEdgeStyle;rounded=0;orthogonalLoop=1;jettySize=auto;html=1;entryX=0.5;entryY=0;entryDx=0;entryDy=0;" edge="1" parent="1" source="I6UonMHYqPcTa4JFxydw-2" target="I6UonMHYqPcTa4JFxydw-4">
          <mxGeometry relative="1" as="geometry" />
        </mxCell>
        <mxCell id="I6UonMHYqPcTa4JFxydw-2" value="range(32, 128)" style="rhombus;whiteSpace=wrap;html=1;" vertex="1" parent="1">
          <mxGeometry x="360" y="330" width="80" height="80" as="geometry" />
        </mxCell>
        <mxCell id="I6UonMHYqPcTa4JFxydw-12" style="edgeStyle=orthogonalEdgeStyle;rounded=0;orthogonalLoop=1;jettySize=auto;html=1;entryX=1;entryY=0;entryDx=0;entryDy=0;" edge="1" parent="1" source="I6UonMHYqPcTa4JFxydw-4" target="I6UonMHYqPcTa4JFxydw-7">
          <mxGeometry relative="1" as="geometry" />
        </mxCell>
        <mxCell id="I6UonMHYqPcTa4JFxydw-4" value="&quot;%4d-%s&quot; % (i, chr(i)), end=&#39; &#39;" style="rounded=0;whiteSpace=wrap;html=1;" vertex="1" parent="1">
          <mxGeometry x="340" y="450" width="120" height="60" as="geometry" />
        </mxCell>
        <mxCell id="I6UonMHYqPcTa4JFxydw-13" style="edgeStyle=orthogonalEdgeStyle;rounded=0;orthogonalLoop=1;jettySize=auto;html=1;entryX=0.5;entryY=0;entryDx=0;entryDy=0;" edge="1" parent="1" source="I6UonMHYqPcTa4JFxydw-5" target="I6UonMHYqPcTa4JFxydw-8">
          <mxGeometry relative="1" as="geometry" />
        </mxCell>
        <mxCell id="I6UonMHYqPcTa4JFxydw-14" style="edgeStyle=orthogonalEdgeStyle;rounded=0;orthogonalLoop=1;jettySize=auto;html=1;entryX=0.5;entryY=0;entryDx=0;entryDy=0;" edge="1" parent="1" source="I6UonMHYqPcTa4JFxydw-5" target="I6UonMHYqPcTa4JFxydw-9">
          <mxGeometry relative="1" as="geometry" />
        </mxCell>
        <mxCell id="I6UonMHYqPcTa4JFxydw-5" value="i % 10 = 0" style="rhombus;whiteSpace=wrap;html=1;" vertex="1" parent="1">
          <mxGeometry x="360" y="580" width="80" height="80" as="geometry" />
        </mxCell>
        <mxCell id="I6UonMHYqPcTa4JFxydw-6" value="Да" style="text;html=1;strokeColor=none;fillColor=none;align=center;verticalAlign=middle;whiteSpace=wrap;rounded=0;" vertex="1" parent="1">
          <mxGeometry x="414" y="570" width="60" height="30" as="geometry" />
        </mxCell>
        <mxCell id="I6UonMHYqPcTa4JFxydw-7" value="Нет" style="text;html=1;strokeColor=none;fillColor=none;align=center;verticalAlign=middle;whiteSpace=wrap;rounded=0;" vertex="1" parent="1">
          <mxGeometry x="340" y="570" width="60" height="30" as="geometry" />
        </mxCell>
        <mxCell id="I6UonMHYqPcTa4JFxydw-16" style="edgeStyle=orthogonalEdgeStyle;rounded=0;orthogonalLoop=1;jettySize=auto;html=1;entryX=1;entryY=0.5;entryDx=0;entryDy=0;" edge="1" parent="1" source="I6UonMHYqPcTa4JFxydw-8" target="I6UonMHYqPcTa4JFxydw-2">
          <mxGeometry relative="1" as="geometry">
            <Array as="points">
              <mxPoint x="600" y="760" />
              <mxPoint x="600" y="370" />
            </Array>
          </mxGeometry>
        </mxCell>
        <mxCell id="I6UonMHYqPcTa4JFxydw-18" style="edgeStyle=orthogonalEdgeStyle;rounded=0;orthogonalLoop=1;jettySize=auto;html=1;entryX=1;entryY=0.5;entryDx=0;entryDy=0;" edge="1" parent="1" source="I6UonMHYqPcTa4JFxydw-8" target="I6UonMHYqPcTa4JFxydw-17">
          <mxGeometry relative="1" as="geometry" />
        </mxCell>
        <mxCell id="I6UonMHYqPcTa4JFxydw-8" value="Вывод: i" style="shape=parallelogram;perimeter=parallelogramPerimeter;whiteSpace=wrap;html=1;fixedSize=1;" vertex="1" parent="1">
          <mxGeometry x="450" y="730" width="120" height="60" as="geometry" />
        </mxCell>
        <mxCell id="I6UonMHYqPcTa4JFxydw-15" style="edgeStyle=orthogonalEdgeStyle;rounded=0;orthogonalLoop=1;jettySize=auto;html=1;entryX=0;entryY=0.5;entryDx=0;entryDy=0;" edge="1" parent="1" source="I6UonMHYqPcTa4JFxydw-9" target="I6UonMHYqPcTa4JFxydw-2">
          <mxGeometry relative="1" as="geometry">
            <Array as="points">
              <mxPoint x="200" y="760" />
              <mxPoint x="200" y="370" />
            </Array>
          </mxGeometry>
        </mxCell>
        <mxCell id="I6UonMHYqPcTa4JFxydw-19" style="edgeStyle=orthogonalEdgeStyle;rounded=0;orthogonalLoop=1;jettySize=auto;html=1;entryX=0;entryY=0.5;entryDx=0;entryDy=0;" edge="1" parent="1" source="I6UonMHYqPcTa4JFxydw-9" target="I6UonMHYqPcTa4JFxydw-17">
          <mxGeometry relative="1" as="geometry" />
        </mxCell>
        <mxCell id="I6UonMHYqPcTa4JFxydw-9" value="pass" style="rounded=0;whiteSpace=wrap;html=1;" vertex="1" parent="1">
          <mxGeometry x="230" y="730" width="120" height="60" as="geometry" />
        </mxCell>
        <mxCell id="I6UonMHYqPcTa4JFxydw-17" value="Конец" style="ellipse;whiteSpace=wrap;html=1;" vertex="1" parent="1">
          <mxGeometry x="340" y="830" width="120" height="80" as="geometry" />
        </mxCell>
      </root>
    </mxGraphModel>
  </diagram>
</mxfile>
